<svg width="41" height="44" viewBox="0 0 41 44" fill="none" xmlns="http://www.w3.org/2000/svg">
<path d="M32.5547 29.8068V24.2959H35.9072" stroke="#007CC2" stroke-width="1.40004" stroke-linecap="round" stroke-linejoin="round"/>
<path d="M32.5547 27.0586H35.4324" stroke="#007CC2" stroke-width="1.40004" stroke-linecap="round" stroke-linejoin="round"/>
<path d="M19.4463 29.8059V24.2806H21.3887C21.3887 24.2806 23.0578 24.2231 23.0578 25.7051C23.0578 27.2447 21.3887 27.259 21.3887 27.259H19.4463" stroke="#007CC2" stroke-width="1.40004" stroke-linecap="round" stroke-linejoin="round"/>
<path d="M27.2732 29.8066C28.6258 29.8066 29.7049 28.5692 29.7049 27.0439C29.7049 25.5187 28.6114 24.2812 27.2732 24.2812H25.5322V29.8066H27.2732Z" stroke="#007CC2" stroke-width="1.40004" stroke-linecap="round" stroke-linejoin="round"/>
<path d="M23.9932 1V8.19436H31.1875" stroke="#007CC2" stroke-width="1.40004" stroke-miterlimit="10" stroke-linecap="round" stroke-linejoin="round"/>
<path d="M31.1875 39.8496V41.2597C31.1875 42.0511 30.5544 42.6986 29.763 42.6986H2.41007C1.61869 42.6986 1 42.0511 1 41.2597V2.45328C1 1.6619 1.63308 1 2.41007 1H23.9932C24.3673 1 24.54 1.15833 24.799 1.41733L30.7559 7.30227C31.0293 7.57565 31.1732 7.82025 31.1732 8.19436V13.9499" stroke="#007CC2" stroke-width="1.40004" stroke-miterlimit="10" stroke-linecap="round" stroke-linejoin="round"/>
<path d="M37.8347 18.3096H15.8487C14.7696 18.3096 13.9062 19.1729 13.9062 20.252V33.4897C13.9062 34.5688 14.784 35.4321 15.8487 35.4321H37.8347C38.9139 35.4321 39.7771 34.5688 39.7771 33.4897V20.252C39.7771 19.1729 38.8995 18.3096 37.8347 18.3096Z" stroke="#007CC2" stroke-width="1.40004" stroke-miterlimit="10" stroke-linecap="round" stroke-linejoin="round"/>
</svg>
