<svg width="16" height="16" viewBox="0 0 16 16" fill="none" xmlns="http://www.w3.org/2000/svg">
<path fill-rule="evenodd" clip-rule="evenodd" d="M7.55596 2.89469C7.55596 2.89268 7.55597 2.89068 7.55597 2.88867C7.55597 2.8866 7.55597 2.88453 7.55596 2.88246C7.55596 2.88453 7.55596 2.8866 7.55596 2.88867C7.55596 2.89068 7.55596 2.89268 7.55596 2.89469ZM7.55597 0.888672C7.55596 0.888672 7.55596 0.888672 7.55596 0.888672C4.97869 0.888672 2.88933 2.97791 2.88933 5.5553V7.41394C2.88933 7.46112 2.88859 7.5082 2.88712 7.55518C2.88652 7.55513 2.88591 7.55506 2.88531 7.55499C2.88397 7.55484 2.88263 7.55469 2.88128 7.55469C2.8608 8.21199 2.69871 8.85106 2.41096 9.4274C2.15737 9.92984 1.80788 10.3859 1.37435 10.7693C1.35374 10.7873 1.33294 10.805 1.31195 10.8226C1.28191 10.8479 1.25334 10.8743 1.22627 10.9019C1.07085 11.0586 0.964172 11.255 0.916747 11.4681C0.89935 11.5461 0.889956 11.6263 0.889002 11.7075C0.888008 11.7898 0.895663 11.8733 0.9125 11.9567C0.912991 11.9591 0.913491 11.9615 0.913998 11.964C0.915978 11.9736 0.918082 11.9831 0.920309 11.9925C0.923489 12.0061 0.926915 12.0197 0.930591 12.0333C1.07195 12.5553 1.58794 12.8887 2.12932 12.8887H2.13263H12.9793H12.9826C13.524 12.8887 14.04 12.5553 14.1813 12.0333C14.1849 12.0202 14.1882 12.007 14.1913 11.9938C14.1937 11.9839 14.1959 11.974 14.1979 11.964C14.1984 11.9615 14.1989 11.9591 14.1994 11.9567C14.2164 11.8725 14.2241 11.7884 14.2229 11.7054C14.2187 11.4026 14.0974 11.1154 13.8857 10.9019C13.8586 10.8743 13.83 10.8479 13.8 10.8226C13.779 10.805 13.7582 10.7873 13.7376 10.7693C13.304 10.3859 12.9545 9.9298 12.7009 9.42734C12.4132 8.85102 12.2511 8.21197 12.2306 7.55469C12.2287 7.55469 12.2267 7.55501 12.2248 7.55518C12.2233 7.50821 12.2226 7.46112 12.2226 7.41394V5.5553C12.2226 2.97791 10.1332 0.888672 7.55597 0.888672ZM7.55598 15.5553C8.76337 15.5553 9.77338 14.6946 10.0053 13.5553H5.10664C5.33869 14.6946 6.3487 15.5553 7.55598 15.5553Z" fill="white"/>
</svg>
